<svg xmlns="http://www.w3.org/2000/svg" xmlns:xlink="http://www.w3.org/1999/xlink" width="500" zoomAndPan="magnify" viewBox="0 0 375 374.999991" height="500" preserveAspectRatio="xMidYMid meet" version="1.0"><defs><g/><clipPath id="cd4f6e3f24"><path d="M 195 97 L 246.984375 97 L 246.984375 198 L 195 198 Z M 195 97 " clip-rule="nonzero"/></clipPath><clipPath id="d61c94a39d"><path d="M 152 87 L 190 87 L 190 212.023438 L 152 212.023438 Z M 152 87 " clip-rule="nonzero"/></clipPath></defs><rect x="-37.5" width="450" fill="#ffffff" y="-37.499999" height="449.999989" fill-opacity="1"/><rect x="-37.5" width="450" fill="#dc143c" y="-37.499999" height="449.999989" fill-opacity="1"/><path fill="#ffffff" d="M 196.984375 172.582031 C 196.257812 172.582031 195.664062 171.988281 195.664062 171.257812 C 195.664062 170.523438 196.257812 169.929688 196.984375 169.929688 C 209.203125 169.929688 219.144531 159.941406 219.144531 147.664062 C 219.144531 135.386719 209.203125 125.398438 196.984375 125.398438 C 196.257812 125.398438 195.664062 124.804688 195.664062 124.074219 C 195.664062 123.34375 196.257812 122.75 196.984375 122.75 C 210.660156 122.75 221.78125 133.925781 221.78125 147.667969 C 221.78125 161.40625 210.660156 172.582031 196.984375 172.582031 Z M 196.984375 172.582031 " fill-opacity="1" fill-rule="nonzero"/><g clip-path="url(#cd4f6e3f24)"><path fill="#ffffff" d="M 203.289062 197.902344 L 196.984375 197.902344 C 196.253906 197.902344 195.664062 197.308594 195.664062 196.574219 C 195.664062 195.84375 196.253906 195.25 196.984375 195.25 L 203.289062 195.25 C 204.269531 195.25 205.070312 194.449219 205.070312 193.464844 L 205.070312 187.550781 C 205.070312 186.933594 205.488281 186.402344 206.085938 186.257812 C 210.207031 185.28125 214.121094 183.652344 217.710938 181.421875 C 218.234375 181.097656 218.90625 181.179688 219.335938 181.613281 L 223.496094 185.792969 C 224.191406 186.492188 225.320312 186.492188 226.011719 185.792969 L 234.933594 176.832031 C 235.625 176.136719 235.625 175.003906 234.933594 174.304688 L 230.769531 170.125 C 230.335938 169.691406 230.257812 169.015625 230.582031 168.492188 C 232.800781 164.882812 234.421875 160.953125 235.394531 156.808594 C 235.535156 156.210938 236.066406 155.789062 236.679688 155.789062 L 242.566406 155.789062 C 243.546875 155.789062 244.34375 154.988281 244.34375 154.003906 L 244.34375 141.328125 C 244.34375 140.34375 243.546875 139.542969 242.566406 139.542969 L 236.679688 139.542969 C 236.066406 139.542969 235.535156 139.121094 235.394531 138.523438 C 234.421875 134.378906 232.800781 130.449219 230.582031 126.839844 C 230.257812 126.316406 230.335938 125.640625 230.769531 125.207031 L 234.933594 121.027344 C 235.625 120.328125 235.625 119.195312 234.933594 118.5 L 226.011719 109.539062 C 225.320312 108.839844 224.191406 108.839844 223.496094 109.539062 L 219.335938 113.71875 C 218.90625 114.152344 218.234375 114.230469 217.710938 113.910156 C 214.121094 111.675781 210.207031 110.050781 206.085938 109.074219 C 205.488281 108.929688 205.070312 108.398438 205.070312 107.78125 L 205.070312 101.867188 C 205.070312 100.882812 204.269531 100.082031 203.289062 100.082031 L 196.984375 100.082031 C 196.253906 100.082031 195.664062 99.488281 195.664062 98.757812 C 195.664062 98.023438 196.253906 97.429688 196.984375 97.429688 L 203.289062 97.429688 C 205.726562 97.429688 207.707031 99.421875 207.707031 101.867188 L 207.707031 106.746094 C 211.394531 107.71875 214.917969 109.183594 218.199219 111.113281 L 221.632812 107.664062 C 223.355469 105.933594 226.15625 105.933594 227.878906 107.664062 L 236.796875 116.625 C 238.519531 118.355469 238.519531 121.167969 236.796875 122.902344 L 233.367188 126.351562 C 235.285156 129.648438 236.742188 133.1875 237.710938 136.894531 L 242.566406 136.894531 C 245 136.894531 246.980469 138.882812 246.980469 141.332031 L 246.980469 154.003906 C 246.980469 156.449219 245 158.441406 242.566406 158.441406 L 237.710938 158.441406 C 236.742188 162.148438 235.285156 165.6875 233.367188 168.984375 L 236.796875 172.433594 C 238.519531 174.164062 238.519531 176.980469 236.796875 178.707031 L 227.878906 187.671875 C 226.15625 189.402344 223.355469 189.402344 221.632812 187.671875 L 218.199219 184.222656 C 214.917969 186.148438 211.394531 187.613281 207.707031 188.585938 L 207.707031 193.464844 C 207.707031 195.914062 205.726562 197.902344 203.289062 197.902344 Z M 203.289062 197.902344 " fill-opacity="1" fill-rule="nonzero"/></g><path fill="#ffffff" d="M 146.308594 131.472656 C 145.972656 131.472656 145.636719 131.34375 145.378906 131.089844 C 145.25 130.960938 142.195312 127.847656 141.40625 121.148438 C 140.644531 114.664062 142.804688 108.207031 147.335938 103.429688 C 151.886719 98.628906 158.234375 96.132812 164.769531 96.582031 C 167.726562 96.785156 168.890625 97.316406 171.820312 98.816406 C 172.46875 99.148438 172.726562 99.945312 172.398438 100.601562 C 172.066406 101.25 171.273438 101.511719 170.621094 101.179688 C 167.820312 99.742188 167.066406 99.398438 164.589844 99.226562 C 158.851562 98.832031 153.253906 101.027344 149.246094 105.257812 C 145.261719 109.460938 143.359375 115.140625 144.027344 120.835938 C 144.707031 126.625 147.210938 129.179688 147.238281 129.203125 C 147.753906 129.71875 147.757812 130.558594 147.246094 131.078125 C 146.988281 131.339844 146.648438 131.46875 146.308594 131.46875 Z M 146.308594 131.472656 " fill-opacity="1" fill-rule="nonzero"/><path fill="#ffffff" d="M 171.597656 196.058594 C 167.992188 196.058594 164.507812 194.660156 161.835938 192.105469 C 158.742188 189.148438 157.136719 185.015625 157.425781 180.769531 C 157.476562 180.039062 158.105469 179.492188 158.832031 179.539062 C 159.5625 179.589844 160.109375 180.21875 160.058594 180.949219 C 159.824219 184.40625 161.132812 187.769531 163.65625 190.183594 C 166.160156 192.582031 169.546875 193.730469 172.9375 193.324219 C 173.671875 193.242188 174.316406 193.757812 174.402344 194.488281 C 174.488281 195.214844 173.972656 195.871094 173.25 195.957031 C 172.695312 196.023438 172.148438 196.058594 171.597656 196.058594 Z M 171.597656 196.058594 " fill-opacity="1" fill-rule="nonzero"/><path fill="#ffffff" d="M 176.625 159.441406 C 176.5625 159.441406 176.503906 159.433594 176.4375 159.425781 C 172.03125 158.796875 168.152344 156.222656 165.796875 152.371094 C 163.429688 148.496094 162.902344 143.828125 164.34375 139.5625 C 164.578125 138.871094 165.328125 138.5 166.015625 138.734375 C 166.707031 138.972656 167.078125 139.726562 166.84375 140.417969 C 165.652344 143.933594 166.089844 147.785156 168.046875 150.980469 C 169.988281 154.160156 173.183594 156.28125 176.8125 156.800781 C 177.53125 156.90625 178.035156 157.574219 177.933594 158.300781 C 177.839844 158.960938 177.273438 159.4375 176.628906 159.4375 Z M 176.625 159.441406 " fill-opacity="1" fill-rule="nonzero"/><path fill="#ffffff" d="M 161.011719 161.070312 C 160.097656 161.070312 159.175781 160.917969 158.289062 160.617188 C 157.597656 160.378906 157.226562 159.628906 157.460938 158.933594 C 157.699219 158.242188 158.445312 157.871094 159.136719 158.105469 C 160.789062 158.667969 162.601562 158.460938 164.105469 157.53125 C 165.601562 156.609375 166.597656 155.09375 166.839844 153.375 C 166.941406 152.652344 167.617188 152.148438 168.332031 152.25 C 169.054688 152.351562 169.554688 153.023438 169.453125 153.75 C 169.097656 156.253906 167.652344 158.457031 165.488281 159.789062 C 164.117188 160.636719 162.570312 161.070312 161.011719 161.070312 Z M 161.011719 161.070312 " fill-opacity="1" fill-rule="nonzero"/><path fill="#ffffff" d="M 181.207031 116.363281 C 180.71875 116.363281 180.25 116.09375 180.019531 115.625 C 179.0625 113.671875 177.292969 112.257812 175.160156 111.746094 C 173.042969 111.234375 170.84375 111.6875 169.125 112.980469 C 168.542969 113.421875 167.714844 113.300781 167.277344 112.71875 C 166.839844 112.132812 166.957031 111.300781 167.542969 110.863281 C 169.890625 109.089844 172.890625 108.472656 175.773438 109.164062 C 178.671875 109.863281 181.082031 111.789062 182.386719 114.453125 C 182.707031 115.109375 182.441406 115.902344 181.785156 116.226562 C 181.601562 116.320312 181.398438 116.363281 181.207031 116.363281 Z M 181.207031 116.363281 " fill-opacity="1" fill-rule="nonzero"/><path fill="#ffffff" d="M 144.46875 160.945312 C 144.40625 160.945312 144.339844 160.941406 144.273438 160.929688 C 144.105469 160.90625 127.726562 158.199219 128.410156 139.660156 C 128.90625 126.265625 138.136719 122.40625 142.949219 122.238281 C 143.660156 122.214844 144.285156 122.785156 144.3125 123.519531 C 144.339844 124.25 143.769531 124.863281 143.042969 124.890625 C 142.570312 124.910156 131.574219 125.535156 131.050781 139.757812 C 130.453125 155.894531 144.089844 158.21875 144.671875 158.308594 C 145.390625 158.421875 145.882812 159.097656 145.773438 159.820312 C 145.671875 160.476562 145.113281 160.945312 144.472656 160.945312 Z M 144.46875 160.945312 " fill-opacity="1" fill-rule="nonzero"/><g clip-path="url(#d61c94a39d)"><path fill="#ffffff" d="M 172.503906 212.023438 C 169.40625 212.023438 166.316406 211.308594 163.574219 209.871094 C 163.386719 209.773438 163.203125 209.671875 163.019531 209.570312 C 150.367188 202.398438 152.726562 192.402344 152.835938 191.980469 C 153.015625 191.273438 153.726562 190.839844 154.4375 191.023438 C 155.144531 191.203125 155.570312 191.921875 155.390625 192.632812 C 155.308594 192.972656 153.492188 201.125 164.316406 207.261719 C 164.472656 207.351562 164.632812 207.4375 164.792969 207.523438 C 169.875 210.1875 176.335938 209.96875 181.261719 206.972656 C 185.035156 204.675781 187.199219 201.167969 187.199219 197.347656 L 187.199219 95.40625 C 187.199219 93.46875 186.050781 92.222656 185.089844 91.511719 C 183 89.976562 179.847656 89.5625 177.050781 90.453125 C 169.871094 92.746094 169.148438 98.347656 169.121094 98.585938 C 169.039062 99.3125 168.394531 99.835938 167.667969 99.757812 C 166.945312 99.679688 166.421875 99.035156 166.5 98.308594 C 166.527344 98 167.371094 90.761719 176.253906 87.925781 C 179.878906 86.773438 183.859375 87.324219 186.648438 89.375 C 188.703125 90.886719 189.835938 93.027344 189.835938 95.40625 L 189.835938 197.347656 C 189.835938 202.113281 187.210938 206.449219 182.628906 209.238281 C 179.589844 211.089844 176.042969 212.023438 172.503906 212.023438 Z M 172.503906 212.023438 " fill-opacity="1" fill-rule="nonzero"/></g><path fill="#ffffff" d="M 158.453125 193.894531 C 152.585938 193.894531 141.988281 192.324219 136.765625 181.816406 C 130.285156 168.773438 136.328125 157.910156 136.589844 157.453125 C 136.953125 156.820312 137.757812 156.597656 138.390625 156.964844 C 139.023438 157.328125 139.242188 158.136719 138.878906 158.773438 C 138.796875 158.917969 133.3125 168.925781 139.125 180.632812 C 141.859375 186.128906 146.542969 189.546875 153.046875 190.789062 C 157.972656 191.726562 162.089844 191.007812 162.128906 191 C 162.855469 190.875 163.535156 191.351562 163.660156 192.074219 C 163.789062 192.792969 163.3125 193.484375 162.59375 193.613281 C 162.539062 193.621094 160.910156 193.898438 158.453125 193.898438 Z M 158.453125 193.894531 " fill-opacity="1" fill-rule="nonzero"/><path fill="#ffffff" d="M 145.914062 145.179688 C 145.355469 145.179688 144.835938 144.820312 144.660156 144.253906 C 143.515625 140.640625 142.851562 135.164062 146.171875 129.59375 C 148.316406 125.996094 151.625 123.46875 155.734375 122.292969 C 156.433594 122.089844 157.164062 122.5 157.367188 123.203125 C 157.566406 123.90625 157.160156 124.640625 156.460938 124.839844 C 152.957031 125.847656 150.257812 127.90625 148.433594 130.957031 C 145.621094 135.679688 146.195312 140.359375 147.175781 143.453125 C 147.394531 144.152344 147.011719 144.894531 146.316406 145.117188 C 146.183594 145.160156 146.046875 145.179688 145.914062 145.179688 Z M 145.914062 145.179688 " fill-opacity="1" fill-rule="nonzero"/><g fill="#ffffff" fill-opacity="1"><g transform="translate(40.294173, 242.584761)"><g><path d="M 7.40625 -7.703125 C 7.40625 -6.765625 7.722656 -5.972656 8.359375 -5.328125 C 9.003906 -4.691406 9.789062 -4.375 10.71875 -4.375 L 47.5625 -4.375 L 47.5625 0 L 10.71875 0 C 9.238281 0 7.914062 -0.332031 6.75 -1 C 5.59375 -1.664062 4.679688 -2.578125 4.015625 -3.734375 C 3.347656 -4.890625 3.015625 -6.210938 3.015625 -7.703125 L 3.015625 -18.71875 C 3.015625 -20.207031 3.347656 -21.53125 4.015625 -22.6875 C 4.679688 -23.84375 5.59375 -24.753906 6.75 -25.421875 C 7.914062 -26.085938 9.238281 -26.421875 10.71875 -26.421875 L 47.5625 -26.421875 L 47.5625 -22.046875 L 10.71875 -22.046875 C 9.789062 -22.046875 9.003906 -21.726562 8.359375 -21.09375 C 7.722656 -20.46875 7.40625 -19.675781 7.40625 -18.71875 Z M 7.40625 -7.703125 "/></g></g></g><g fill="#ffffff" fill-opacity="1"><g transform="translate(90.869275, 242.584761)"><g><path d="M 3.015625 0 L 3.015625 -4.375 L 18.578125 -4.375 L 18.578125 -22.046875 L 3.015625 -22.046875 L 3.015625 -26.421875 L 38.5 -26.421875 L 38.5 -22.046875 L 22.953125 -22.046875 L 22.953125 -4.375 L 38.5 -4.375 L 38.5 0 Z M 3.015625 0 "/></g></g></g><g fill="#ffffff" fill-opacity="1"><g transform="translate(132.386124, 242.584761)"><g><path d="M 3.015625 0 L 3.015625 -26.421875 L 39.859375 -26.421875 C 41.347656 -26.421875 42.671875 -26.085938 43.828125 -25.421875 C 44.984375 -24.753906 45.894531 -23.84375 46.5625 -22.6875 C 47.226562 -21.53125 47.5625 -20.207031 47.5625 -18.71875 C 47.5625 -17.238281 47.226562 -15.921875 46.5625 -14.765625 C 45.894531 -13.609375 44.984375 -12.691406 43.828125 -12.015625 C 42.671875 -11.347656 41.347656 -11.015625 39.859375 -11.015625 L 7.40625 -11.015625 L 7.40625 0 Z M 7.40625 -15.40625 L 39.859375 -15.40625 C 40.816406 -15.40625 41.609375 -15.722656 42.234375 -16.359375 C 42.867188 -17.003906 43.1875 -17.789062 43.1875 -18.71875 C 43.1875 -19.675781 42.867188 -20.46875 42.234375 -21.09375 C 41.609375 -21.726562 40.816406 -22.046875 39.859375 -22.046875 L 7.40625 -22.046875 Z M 7.40625 -15.40625 "/></g></g></g><g fill="#ffffff" fill-opacity="1"><g transform="translate(182.961225, 242.584761)"><g><path d="M 3.015625 0 L 3.015625 -26.421875 L 7.40625 -26.421875 L 7.40625 -15.40625 L 43.1875 -15.40625 L 43.1875 -26.421875 L 47.5625 -26.421875 L 47.5625 0 L 43.1875 0 L 43.1875 -11.015625 L 7.40625 -11.015625 L 7.40625 0 Z M 3.015625 0 "/></g></g></g><g fill="#ffffff" fill-opacity="1"><g transform="translate(233.536327, 242.584761)"><g><path d="M 3.015625 -18.71875 C 3.015625 -20.207031 3.347656 -21.53125 4.015625 -22.6875 C 4.679688 -23.84375 5.59375 -24.753906 6.75 -25.421875 C 7.914062 -26.085938 9.238281 -26.421875 10.71875 -26.421875 L 47.5625 -26.421875 L 47.5625 -22.046875 L 10.71875 -22.046875 C 9.789062 -22.046875 9.003906 -21.726562 8.359375 -21.09375 C 7.722656 -20.46875 7.40625 -19.675781 7.40625 -18.71875 L 7.40625 -15.40625 L 47.5625 -15.40625 L 47.5625 -11.015625 L 7.40625 -11.015625 L 7.40625 -7.703125 C 7.40625 -6.765625 7.722656 -5.972656 8.359375 -5.328125 C 9.003906 -4.691406 9.789062 -4.375 10.71875 -4.375 L 47.5625 -4.375 L 47.5625 0 L 10.71875 0 C 9.238281 0 7.914062 -0.332031 6.75 -1 C 5.59375 -1.664062 4.679688 -2.578125 4.015625 -3.734375 C 3.347656 -4.890625 3.015625 -6.210938 3.015625 -7.703125 Z M 3.015625 -18.71875 "/></g></g></g><g fill="#ffffff" fill-opacity="1"><g transform="translate(284.111428, 242.584761)"><g><path d="M 3.015625 0 L 3.015625 -26.421875 L 39.859375 -26.421875 C 41.347656 -26.421875 42.671875 -26.085938 43.828125 -25.421875 C 44.984375 -24.753906 45.894531 -23.84375 46.5625 -22.6875 C 47.226562 -21.53125 47.5625 -20.207031 47.5625 -18.71875 C 47.5625 -17.1875 47.203125 -15.820312 46.484375 -14.625 C 45.765625 -13.425781 44.800781 -12.515625 43.59375 -11.890625 C 44.851562 -10.734375 45.828125 -9.320312 46.515625 -7.65625 C 47.210938 -6 47.5625 -4.175781 47.5625 -2.1875 L 47.5625 0 L 43.1875 0 L 43.1875 -2.1875 C 43.1875 -3.894531 42.800781 -5.410156 42.03125 -6.734375 C 41.269531 -8.054688 40.226562 -9.097656 38.90625 -9.859375 C 37.582031 -10.628906 36.066406 -11.015625 34.359375 -11.015625 L 7.40625 -11.015625 L 7.40625 0 Z M 7.40625 -15.40625 L 39.859375 -15.40625 C 40.816406 -15.40625 41.609375 -15.722656 42.234375 -16.359375 C 42.867188 -17.003906 43.1875 -17.789062 43.1875 -18.71875 C 43.1875 -19.675781 42.867188 -20.46875 42.234375 -21.09375 C 41.609375 -21.726562 40.816406 -22.046875 39.859375 -22.046875 L 7.40625 -22.046875 Z M 7.40625 -15.40625 "/></g></g></g><g fill="#ffffff" fill-opacity="1"><g transform="translate(96.607409, 279.648066)"><g><path d="M 39.65625 -11.359375 C 40.988281 -10.097656 41.65625 -8.535156 41.65625 -6.671875 C 41.65625 -4.835938 40.988281 -3.257812 39.65625 -1.9375 C 38.394531 -0.644531 36.816406 0 34.921875 0 L 4.734375 0 L 4.734375 -3.78125 L 34.921875 -3.78125 C 35.710938 -3.78125 36.394531 -4.066406 36.96875 -4.640625 C 37.53125 -5.203125 37.8125 -5.878906 37.8125 -6.671875 C 37.8125 -7.460938 37.53125 -8.140625 36.96875 -8.703125 C 36.363281 -9.242188 35.679688 -9.515625 34.921875 -9.515625 L 10.453125 -9.515625 C 8.628906 -9.515625 7.054688 -10.175781 5.734375 -11.5 C 4.429688 -12.789062 3.78125 -14.367188 3.78125 -16.234375 C 3.78125 -18.066406 4.429688 -19.628906 5.734375 -20.921875 C 7.054688 -22.242188 8.628906 -22.90625 10.453125 -22.90625 L 40.703125 -22.90625 L 40.703125 -19.078125 L 10.453125 -19.078125 C 9.671875 -19.078125 8.992188 -18.789062 8.421875 -18.21875 C 7.890625 -17.6875 7.625 -17.023438 7.625 -16.234375 C 7.625 -15.410156 7.890625 -14.734375 8.421875 -14.203125 C 8.992188 -13.628906 9.671875 -13.34375 10.453125 -13.34375 L 34.921875 -13.34375 C 36.816406 -13.34375 38.394531 -12.679688 39.65625 -11.359375 Z M 39.65625 -11.359375 "/></g></g></g><g fill="#ffffff" fill-opacity="1"><g transform="translate(142.038975, 279.648066)"><g><path d="M 39.65625 -21.015625 C 40.988281 -19.691406 41.65625 -18.113281 41.65625 -16.28125 L 41.65625 -6.671875 C 41.65625 -4.898438 40.988281 -3.320312 39.65625 -1.9375 C 38.394531 -0.644531 36.832031 0 34.96875 0 L 10.5 0 C 8.613281 0 7.039062 -0.644531 5.78125 -1.9375 C 4.445312 -3.257812 3.78125 -4.835938 3.78125 -6.671875 L 3.78125 -16.375 C 3.78125 -18.113281 4.445312 -19.660156 5.78125 -21.015625 C 7.039062 -22.304688 8.597656 -22.953125 10.453125 -22.953125 L 34.921875 -22.953125 C 36.785156 -22.953125 38.363281 -22.304688 39.65625 -21.015625 Z M 36.96875 -4.6875 C 37.53125 -5.25 37.8125 -5.910156 37.8125 -6.671875 L 37.8125 -16.28125 C 37.8125 -17.070312 37.53125 -17.75 36.96875 -18.3125 C 36.394531 -18.882812 35.710938 -19.171875 34.921875 -19.171875 L 10.5 -19.171875 C 9.71875 -19.171875 9.039062 -18.882812 8.46875 -18.3125 C 7.90625 -17.75 7.625 -17.070312 7.625 -16.28125 L 7.625 -6.671875 C 7.625 -5.878906 7.90625 -5.203125 8.46875 -4.640625 C 8.914062 -4.191406 9.40625 -3.921875 9.9375 -3.828125 L 34.921875 -3.828125 C 35.710938 -3.828125 36.394531 -4.113281 36.96875 -4.6875 Z M 36.96875 -4.6875 "/></g></g></g><g fill="#ffffff" fill-opacity="1"><g transform="translate(187.470541, 279.648066)"><g><path d="M 8.46875 -18.3125 C 7.90625 -17.75 7.625 -17.070312 7.625 -16.28125 L 7.625 -13.390625 L 37.625 -13.390625 L 37.625 -9.5625 L 7.625 -9.5625 L 7.625 0 L 3.78125 0 L 3.78125 -16.28125 C 3.78125 -18.082031 4.445312 -19.660156 5.78125 -21.015625 C 7.039062 -22.304688 8.613281 -22.953125 10.5 -22.953125 L 41.65625 -22.953125 L 41.65625 -19.125 L 9.9375 -19.125 C 9.40625 -19.03125 8.914062 -18.757812 8.46875 -18.3125 Z M 8.46875 -18.3125 "/></g></g></g><g fill="#ffffff" fill-opacity="1"><g transform="translate(232.902107, 279.648066)"><g><path d="M 41.65625 -22.953125 L 3.78125 -22.953125 L 3.78125 -19.125 L 20.875 -19.125 L 20.875 0 L 24.703125 0 L 24.703125 -19.125 L 41.65625 -19.125 Z M 41.65625 -22.953125 "/></g></g></g></svg>