<svg xmlns="http://www.w3.org/2000/svg" xmlns:xlink="http://www.w3.org/1999/xlink" width="500" zoomAndPan="magnify" viewBox="0 0 375 374.999991" height="500" preserveAspectRatio="xMidYMid meet" version="1.0"><defs><g/><clipPath id="2319a3e8dd"><path d="M 195 97 L 246.984375 97 L 246.984375 198 L 195 198 Z M 195 97 " clip-rule="nonzero"/></clipPath></defs><rect x="-37.5" width="450" fill="#ffffff" y="-37.499999" height="449.999989" fill-opacity="1"/><rect x="-37.5" width="450" fill="#ffffff" y="-37.499999" height="449.999989" fill-opacity="1"/><path fill="#dc143c" d="M 197.148438 172.371094 C 196.417969 172.371094 195.828125 171.78125 195.828125 171.050781 C 195.828125 170.320312 196.417969 169.726562 197.148438 169.726562 C 209.394531 169.726562 219.359375 159.765625 219.359375 147.515625 C 219.359375 135.269531 209.394531 125.304688 197.148438 125.304688 C 196.417969 125.304688 195.828125 124.714844 195.828125 123.984375 C 195.828125 123.253906 196.417969 122.660156 197.148438 122.660156 C 210.855469 122.660156 222.003906 133.8125 222.003906 147.519531 C 222.003906 161.222656 210.855469 172.375 197.148438 172.375 Z M 197.148438 172.371094 " fill-opacity="1" fill-rule="nonzero"/><g clip-path="url(#2319a3e8dd)"><path fill="#dc143c" d="M 203.46875 197.628906 L 197.148438 197.628906 C 196.417969 197.628906 195.824219 197.039062 195.824219 196.308594 C 195.824219 195.578125 196.417969 194.984375 197.148438 194.984375 L 203.46875 194.984375 C 204.449219 194.984375 205.25 194.1875 205.25 193.203125 L 205.25 187.304688 C 205.25 186.691406 205.671875 186.15625 206.269531 186.015625 C 210.402344 185.042969 214.324219 183.417969 217.921875 181.191406 C 218.445312 180.871094 219.121094 180.949219 219.554688 181.382812 L 223.722656 185.554688 C 224.417969 186.246094 225.550781 186.246094 226.242188 185.554688 L 235.183594 176.613281 C 235.878906 175.917969 235.878906 174.789062 235.183594 174.09375 L 231.015625 169.921875 C 230.578125 169.488281 230.5 168.8125 230.824219 168.292969 C 233.050781 164.695312 234.671875 160.773438 235.648438 156.640625 C 235.789062 156.042969 236.320312 155.621094 236.933594 155.621094 L 242.835938 155.621094 C 243.816406 155.621094 244.617188 154.820312 244.617188 153.839844 L 244.617188 141.195312 C 244.617188 140.214844 243.820312 139.414062 242.835938 139.414062 L 236.933594 139.414062 C 236.320312 139.414062 235.789062 138.992188 235.648438 138.398438 C 234.671875 134.265625 233.050781 130.34375 230.824219 126.742188 C 230.5 126.222656 230.578125 125.546875 231.015625 125.113281 L 235.183594 120.941406 C 235.878906 120.25 235.878906 119.117188 235.183594 118.421875 L 226.242188 109.480469 C 225.550781 108.785156 224.417969 108.789062 223.722656 109.480469 L 219.554688 113.652344 C 219.121094 114.085938 218.445312 114.164062 217.921875 113.84375 C 214.324219 111.617188 210.402344 109.992188 206.269531 109.019531 C 205.671875 108.878906 205.25 108.34375 205.25 107.730469 L 205.25 101.832031 C 205.25 100.847656 204.453125 100.050781 203.46875 100.050781 L 197.148438 100.050781 C 196.417969 100.050781 195.824219 99.457031 195.824219 98.726562 C 195.824219 97.996094 196.417969 97.40625 197.148438 97.40625 L 203.46875 97.40625 C 205.910156 97.40625 207.894531 99.390625 207.894531 101.832031 L 207.894531 106.699219 C 211.59375 107.667969 215.121094 109.128906 218.414062 111.054688 L 221.855469 107.613281 C 223.582031 105.886719 226.390625 105.886719 228.113281 107.613281 L 237.054688 116.550781 C 238.78125 118.277344 238.78125 121.085938 237.054688 122.8125 L 233.613281 126.253906 C 235.539062 129.542969 237 133.074219 237.96875 136.769531 L 242.835938 136.769531 C 245.277344 136.769531 247.261719 138.757812 247.261719 141.199219 L 247.261719 153.839844 C 247.261719 156.28125 245.277344 158.265625 242.835938 158.265625 L 237.96875 158.265625 C 237 161.964844 235.539062 165.492188 233.613281 168.785156 L 237.054688 172.226562 C 238.78125 173.949219 238.78125 176.757812 237.054688 178.484375 L 228.113281 187.425781 C 226.386719 189.152344 223.582031 189.152344 221.855469 187.425781 L 218.414062 183.984375 C 215.121094 185.90625 211.59375 187.367188 207.894531 188.339844 L 207.894531 193.207031 C 207.894531 195.648438 205.910156 197.632812 203.46875 197.632812 Z M 203.46875 197.628906 " fill-opacity="1" fill-rule="nonzero"/></g><path fill="#dc143c" d="M 146.351562 131.363281 C 146.015625 131.363281 145.675781 131.234375 145.421875 130.980469 C 145.289062 130.851562 142.226562 127.75 141.4375 121.0625 C 140.675781 114.597656 142.839844 108.15625 147.378906 103.390625 C 151.945312 98.597656 158.308594 96.109375 164.855469 96.558594 C 167.820312 96.761719 168.988281 97.289062 171.925781 98.789062 C 172.574219 99.117188 172.832031 99.914062 172.5 100.566406 C 172.171875 101.214844 171.375 101.476562 170.722656 101.144531 C 167.917969 99.710938 167.15625 99.367188 164.675781 99.195312 C 158.925781 98.800781 153.316406 100.992188 149.296875 105.214844 C 145.300781 109.40625 143.394531 115.070312 144.066406 120.75 C 144.746094 126.53125 147.257812 129.074219 147.28125 129.101562 C 147.800781 129.613281 147.804688 130.453125 147.292969 130.96875 C 147.03125 131.230469 146.691406 131.359375 146.351562 131.359375 Z M 146.351562 131.363281 " fill-opacity="1" fill-rule="nonzero"/><path fill="#dc143c" d="M 171.703125 195.792969 C 168.085938 195.792969 164.59375 194.398438 161.917969 191.851562 C 158.816406 188.898438 157.207031 184.777344 157.496094 180.542969 C 157.546875 179.8125 158.179688 179.265625 158.90625 179.3125 C 159.636719 179.363281 160.1875 179.992188 160.136719 180.722656 C 159.898438 184.167969 161.210938 187.527344 163.738281 189.933594 C 166.253906 192.324219 169.644531 193.46875 173.046875 193.066406 C 173.78125 192.984375 174.425781 193.5 174.515625 194.222656 C 174.597656 194.949219 174.082031 195.605469 173.355469 195.691406 C 172.804688 195.757812 172.25 195.792969 171.703125 195.792969 Z M 171.703125 195.792969 " fill-opacity="1" fill-rule="nonzero"/><path fill="#dc143c" d="M 176.742188 159.261719 C 176.679688 159.261719 176.617188 159.257812 176.554688 159.25 C 172.136719 158.621094 168.246094 156.054688 165.886719 152.210938 C 163.515625 148.347656 162.984375 143.691406 164.429688 139.4375 C 164.664062 138.746094 165.414062 138.375 166.109375 138.609375 C 166.796875 138.84375 167.167969 139.597656 166.933594 140.289062 C 165.742188 143.796875 166.179688 147.636719 168.140625 150.824219 C 170.089844 153.996094 173.289062 156.113281 176.925781 156.628906 C 177.648438 156.734375 178.152344 157.402344 178.050781 158.125 C 177.957031 158.785156 177.390625 159.261719 176.742188 159.261719 Z M 176.742188 159.261719 " fill-opacity="1" fill-rule="nonzero"/><path fill="#dc143c" d="M 161.089844 160.890625 C 160.171875 160.890625 159.25 160.738281 158.359375 160.4375 C 157.667969 160.199219 157.296875 159.449219 157.53125 158.757812 C 157.769531 158.066406 158.519531 157.695312 159.210938 157.933594 C 160.867188 158.496094 162.683594 158.285156 164.191406 157.359375 C 165.6875 156.441406 166.6875 154.929688 166.933594 153.214844 C 167.035156 152.492188 167.710938 151.988281 168.429688 152.089844 C 169.152344 152.195312 169.652344 152.863281 169.550781 153.585938 C 169.195312 156.082031 167.746094 158.28125 165.574219 159.613281 C 164.203125 160.457031 162.652344 160.886719 161.089844 160.886719 Z M 161.089844 160.890625 " fill-opacity="1" fill-rule="nonzero"/><path fill="#dc143c" d="M 181.332031 116.292969 C 180.84375 116.292969 180.375 116.019531 180.144531 115.554688 C 179.183594 113.605469 177.410156 112.195312 175.269531 111.683594 C 173.148438 111.175781 170.945312 111.625 169.222656 112.917969 C 168.640625 113.355469 167.808594 113.238281 167.371094 112.65625 C 166.933594 112.070312 167.050781 111.242188 167.636719 110.804688 C 169.988281 109.035156 172.996094 108.421875 175.886719 109.109375 C 178.792969 109.804688 181.207031 111.726562 182.515625 114.382812 C 182.839844 115.039062 182.570312 115.832031 181.914062 116.15625 C 181.726562 116.246094 181.527344 116.292969 181.332031 116.292969 Z M 181.332031 116.292969 " fill-opacity="1" fill-rule="nonzero"/><path fill="#dc143c" d="M 144.511719 160.765625 C 144.445312 160.765625 144.378906 160.757812 144.3125 160.75 C 144.144531 160.722656 127.726562 158.023438 128.414062 139.53125 C 128.910156 126.167969 138.160156 122.320312 142.984375 122.152344 C 143.699219 122.128906 144.324219 122.699219 144.351562 123.429688 C 144.378906 124.15625 143.808594 124.769531 143.082031 124.796875 C 142.605469 124.816406 131.582031 125.441406 131.058594 139.628906 C 130.460938 155.726562 144.128906 158.042969 144.710938 158.132812 C 145.429688 158.246094 145.925781 158.921875 145.816406 159.640625 C 145.714844 160.296875 145.152344 160.765625 144.511719 160.765625 Z M 144.511719 160.765625 " fill-opacity="1" fill-rule="nonzero"/><path fill="#dc143c" d="M 172.609375 211.71875 C 169.503906 211.71875 166.40625 211.007812 163.660156 209.570312 C 163.472656 209.472656 163.285156 209.375 163.101562 209.269531 C 150.421875 202.117188 152.785156 192.144531 152.894531 191.726562 C 153.074219 191.019531 153.789062 190.589844 154.5 190.769531 C 155.210938 190.949219 155.636719 191.667969 155.457031 192.375 C 155.375 192.710938 153.550781 200.847656 164.402344 206.96875 C 164.558594 207.058594 164.71875 207.144531 164.882812 207.226562 C 169.972656 209.886719 176.453125 209.671875 181.386719 206.679688 C 185.167969 204.386719 187.339844 200.890625 187.339844 197.078125 L 187.339844 95.386719 C 187.339844 93.453125 186.191406 92.207031 185.226562 91.5 C 183.132812 89.96875 179.96875 89.554688 177.167969 90.445312 C 169.96875 92.730469 169.246094 98.320312 169.21875 98.558594 C 169.136719 99.28125 168.488281 99.804688 167.761719 99.726562 C 167.039062 99.648438 166.515625 99.003906 166.589844 98.28125 C 166.621094 97.972656 167.460938 90.753906 176.367188 87.925781 C 180 86.773438 183.992188 87.324219 186.789062 89.367188 C 188.847656 90.875 189.984375 93.011719 189.984375 95.386719 L 189.984375 197.078125 C 189.984375 201.835938 187.351562 206.160156 182.761719 208.941406 C 179.714844 210.785156 176.15625 211.71875 172.609375 211.71875 Z M 172.609375 211.71875 " fill-opacity="1" fill-rule="nonzero"/><path fill="#dc143c" d="M 158.523438 193.636719 C 152.644531 193.636719 142.023438 192.066406 136.789062 181.582031 C 130.292969 168.574219 136.347656 157.738281 136.609375 157.28125 C 136.972656 156.648438 137.78125 156.429688 138.414062 156.792969 C 139.050781 157.15625 139.269531 157.960938 138.90625 158.597656 C 138.824219 158.742188 133.324219 168.726562 139.152344 180.402344 C 141.890625 185.886719 146.585938 189.296875 153.105469 190.535156 C 158.042969 191.472656 162.167969 190.753906 162.210938 190.75 C 162.9375 190.621094 163.617188 191.097656 163.746094 191.816406 C 163.875 192.535156 163.394531 193.222656 162.675781 193.351562 C 162.621094 193.359375 160.988281 193.636719 158.523438 193.636719 Z M 158.523438 193.636719 " fill-opacity="1" fill-rule="nonzero"/><path fill="#dc143c" d="M 145.957031 145.039062 C 145.398438 145.039062 144.878906 144.679688 144.699219 144.117188 C 143.554688 140.511719 142.886719 135.046875 146.214844 129.492188 C 148.363281 125.902344 151.679688 123.382812 155.800781 122.207031 C 156.503906 122.003906 157.234375 122.410156 157.433594 123.113281 C 157.636719 123.816406 157.230469 124.546875 156.527344 124.75 C 153.015625 125.75 150.308594 127.804688 148.484375 130.851562 C 145.664062 135.5625 146.238281 140.230469 147.21875 143.316406 C 147.441406 144.011719 147.054688 144.753906 146.359375 144.976562 C 146.226562 145.019531 146.089844 145.039062 145.957031 145.039062 Z M 145.957031 145.039062 " fill-opacity="1" fill-rule="nonzero"/><g fill="#dc143c" fill-opacity="1"><g transform="translate(40.294173, 242.584761)"><g><path d="M 7.40625 -7.703125 C 7.40625 -6.765625 7.722656 -5.972656 8.359375 -5.328125 C 9.003906 -4.691406 9.789062 -4.375 10.71875 -4.375 L 47.5625 -4.375 L 47.5625 0 L 10.71875 0 C 9.238281 0 7.914062 -0.332031 6.75 -1 C 5.59375 -1.664062 4.679688 -2.578125 4.015625 -3.734375 C 3.347656 -4.890625 3.015625 -6.210938 3.015625 -7.703125 L 3.015625 -18.71875 C 3.015625 -20.207031 3.347656 -21.53125 4.015625 -22.6875 C 4.679688 -23.84375 5.59375 -24.753906 6.75 -25.421875 C 7.914062 -26.085938 9.238281 -26.421875 10.71875 -26.421875 L 47.5625 -26.421875 L 47.5625 -22.046875 L 10.71875 -22.046875 C 9.789062 -22.046875 9.003906 -21.726562 8.359375 -21.09375 C 7.722656 -20.46875 7.40625 -19.675781 7.40625 -18.71875 Z M 7.40625 -7.703125 "/></g></g></g><g fill="#dc143c" fill-opacity="1"><g transform="translate(90.869275, 242.584761)"><g><path d="M 3.015625 0 L 3.015625 -4.375 L 18.578125 -4.375 L 18.578125 -22.046875 L 3.015625 -22.046875 L 3.015625 -26.421875 L 38.5 -26.421875 L 38.5 -22.046875 L 22.953125 -22.046875 L 22.953125 -4.375 L 38.5 -4.375 L 38.5 0 Z M 3.015625 0 "/></g></g></g><g fill="#dc143c" fill-opacity="1"><g transform="translate(132.386124, 242.584761)"><g><path d="M 3.015625 0 L 3.015625 -26.421875 L 39.859375 -26.421875 C 41.347656 -26.421875 42.671875 -26.085938 43.828125 -25.421875 C 44.984375 -24.753906 45.894531 -23.84375 46.5625 -22.6875 C 47.226562 -21.53125 47.5625 -20.207031 47.5625 -18.71875 C 47.5625 -17.238281 47.226562 -15.921875 46.5625 -14.765625 C 45.894531 -13.609375 44.984375 -12.691406 43.828125 -12.015625 C 42.671875 -11.347656 41.347656 -11.015625 39.859375 -11.015625 L 7.40625 -11.015625 L 7.40625 0 Z M 7.40625 -15.40625 L 39.859375 -15.40625 C 40.816406 -15.40625 41.609375 -15.722656 42.234375 -16.359375 C 42.867188 -17.003906 43.1875 -17.789062 43.1875 -18.71875 C 43.1875 -19.675781 42.867188 -20.46875 42.234375 -21.09375 C 41.609375 -21.726562 40.816406 -22.046875 39.859375 -22.046875 L 7.40625 -22.046875 Z M 7.40625 -15.40625 "/></g></g></g><g fill="#dc143c" fill-opacity="1"><g transform="translate(182.961225, 242.584761)"><g><path d="M 3.015625 0 L 3.015625 -26.421875 L 7.40625 -26.421875 L 7.40625 -15.40625 L 43.1875 -15.40625 L 43.1875 -26.421875 L 47.5625 -26.421875 L 47.5625 0 L 43.1875 0 L 43.1875 -11.015625 L 7.40625 -11.015625 L 7.40625 0 Z M 3.015625 0 "/></g></g></g><g fill="#dc143c" fill-opacity="1"><g transform="translate(233.536327, 242.584761)"><g><path d="M 3.015625 -18.71875 C 3.015625 -20.207031 3.347656 -21.53125 4.015625 -22.6875 C 4.679688 -23.84375 5.59375 -24.753906 6.75 -25.421875 C 7.914062 -26.085938 9.238281 -26.421875 10.71875 -26.421875 L 47.5625 -26.421875 L 47.5625 -22.046875 L 10.71875 -22.046875 C 9.789062 -22.046875 9.003906 -21.726562 8.359375 -21.09375 C 7.722656 -20.46875 7.40625 -19.675781 7.40625 -18.71875 L 7.40625 -15.40625 L 47.5625 -15.40625 L 47.5625 -11.015625 L 7.40625 -11.015625 L 7.40625 -7.703125 C 7.40625 -6.765625 7.722656 -5.972656 8.359375 -5.328125 C 9.003906 -4.691406 9.789062 -4.375 10.71875 -4.375 L 47.5625 -4.375 L 47.5625 0 L 10.71875 0 C 9.238281 0 7.914062 -0.332031 6.75 -1 C 5.59375 -1.664062 4.679688 -2.578125 4.015625 -3.734375 C 3.347656 -4.890625 3.015625 -6.210938 3.015625 -7.703125 Z M 3.015625 -18.71875 "/></g></g></g><g fill="#dc143c" fill-opacity="1"><g transform="translate(284.111428, 242.584761)"><g><path d="M 3.015625 0 L 3.015625 -26.421875 L 39.859375 -26.421875 C 41.347656 -26.421875 42.671875 -26.085938 43.828125 -25.421875 C 44.984375 -24.753906 45.894531 -23.84375 46.5625 -22.6875 C 47.226562 -21.53125 47.5625 -20.207031 47.5625 -18.71875 C 47.5625 -17.1875 47.203125 -15.820312 46.484375 -14.625 C 45.765625 -13.425781 44.800781 -12.515625 43.59375 -11.890625 C 44.851562 -10.734375 45.828125 -9.320312 46.515625 -7.65625 C 47.210938 -6 47.5625 -4.175781 47.5625 -2.1875 L 47.5625 0 L 43.1875 0 L 43.1875 -2.1875 C 43.1875 -3.894531 42.800781 -5.410156 42.03125 -6.734375 C 41.269531 -8.054688 40.226562 -9.097656 38.90625 -9.859375 C 37.582031 -10.628906 36.066406 -11.015625 34.359375 -11.015625 L 7.40625 -11.015625 L 7.40625 0 Z M 7.40625 -15.40625 L 39.859375 -15.40625 C 40.816406 -15.40625 41.609375 -15.722656 42.234375 -16.359375 C 42.867188 -17.003906 43.1875 -17.789062 43.1875 -18.71875 C 43.1875 -19.675781 42.867188 -20.46875 42.234375 -21.09375 C 41.609375 -21.726562 40.816406 -22.046875 39.859375 -22.046875 L 7.40625 -22.046875 Z M 7.40625 -15.40625 "/></g></g></g><g fill="#dc143c" fill-opacity="1"><g transform="translate(96.607409, 279.648066)"><g><path d="M 39.65625 -11.359375 C 40.988281 -10.097656 41.65625 -8.535156 41.65625 -6.671875 C 41.65625 -4.835938 40.988281 -3.257812 39.65625 -1.9375 C 38.394531 -0.644531 36.816406 0 34.921875 0 L 4.734375 0 L 4.734375 -3.78125 L 34.921875 -3.78125 C 35.710938 -3.78125 36.394531 -4.066406 36.96875 -4.640625 C 37.53125 -5.203125 37.8125 -5.878906 37.8125 -6.671875 C 37.8125 -7.460938 37.53125 -8.140625 36.96875 -8.703125 C 36.363281 -9.242188 35.679688 -9.515625 34.921875 -9.515625 L 10.453125 -9.515625 C 8.628906 -9.515625 7.054688 -10.175781 5.734375 -11.5 C 4.429688 -12.789062 3.78125 -14.367188 3.78125 -16.234375 C 3.78125 -18.066406 4.429688 -19.628906 5.734375 -20.921875 C 7.054688 -22.242188 8.628906 -22.90625 10.453125 -22.90625 L 40.703125 -22.90625 L 40.703125 -19.078125 L 10.453125 -19.078125 C 9.671875 -19.078125 8.992188 -18.789062 8.421875 -18.21875 C 7.890625 -17.6875 7.625 -17.023438 7.625 -16.234375 C 7.625 -15.410156 7.890625 -14.734375 8.421875 -14.203125 C 8.992188 -13.628906 9.671875 -13.34375 10.453125 -13.34375 L 34.921875 -13.34375 C 36.816406 -13.34375 38.394531 -12.679688 39.65625 -11.359375 Z M 39.65625 -11.359375 "/></g></g></g><g fill="#dc143c" fill-opacity="1"><g transform="translate(142.038975, 279.648066)"><g><path d="M 39.65625 -21.015625 C 40.988281 -19.691406 41.65625 -18.113281 41.65625 -16.28125 L 41.65625 -6.671875 C 41.65625 -4.898438 40.988281 -3.320312 39.65625 -1.9375 C 38.394531 -0.644531 36.832031 0 34.96875 0 L 10.5 0 C 8.613281 0 7.039062 -0.644531 5.78125 -1.9375 C 4.445312 -3.257812 3.78125 -4.835938 3.78125 -6.671875 L 3.78125 -16.375 C 3.78125 -18.113281 4.445312 -19.660156 5.78125 -21.015625 C 7.039062 -22.304688 8.597656 -22.953125 10.453125 -22.953125 L 34.921875 -22.953125 C 36.785156 -22.953125 38.363281 -22.304688 39.65625 -21.015625 Z M 36.96875 -4.6875 C 37.53125 -5.25 37.8125 -5.910156 37.8125 -6.671875 L 37.8125 -16.28125 C 37.8125 -17.070312 37.53125 -17.75 36.96875 -18.3125 C 36.394531 -18.882812 35.710938 -19.171875 34.921875 -19.171875 L 10.5 -19.171875 C 9.71875 -19.171875 9.039062 -18.882812 8.46875 -18.3125 C 7.90625 -17.75 7.625 -17.070312 7.625 -16.28125 L 7.625 -6.671875 C 7.625 -5.878906 7.90625 -5.203125 8.46875 -4.640625 C 8.914062 -4.191406 9.40625 -3.921875 9.9375 -3.828125 L 34.921875 -3.828125 C 35.710938 -3.828125 36.394531 -4.113281 36.96875 -4.6875 Z M 36.96875 -4.6875 "/></g></g></g><g fill="#dc143c" fill-opacity="1"><g transform="translate(187.470541, 279.648066)"><g><path d="M 8.46875 -18.3125 C 7.90625 -17.75 7.625 -17.070312 7.625 -16.28125 L 7.625 -13.390625 L 37.625 -13.390625 L 37.625 -9.5625 L 7.625 -9.5625 L 7.625 0 L 3.78125 0 L 3.78125 -16.28125 C 3.78125 -18.082031 4.445312 -19.660156 5.78125 -21.015625 C 7.039062 -22.304688 8.613281 -22.953125 10.5 -22.953125 L 41.65625 -22.953125 L 41.65625 -19.125 L 9.9375 -19.125 C 9.40625 -19.03125 8.914062 -18.757812 8.46875 -18.3125 Z M 8.46875 -18.3125 "/></g></g></g><g fill="#dc143c" fill-opacity="1"><g transform="translate(232.902107, 279.648066)"><g><path d="M 41.65625 -22.953125 L 3.78125 -22.953125 L 3.78125 -19.125 L 20.875 -19.125 L 20.875 0 L 24.703125 0 L 24.703125 -19.125 L 41.65625 -19.125 Z M 41.65625 -22.953125 "/></g></g></g></svg>